<?xml version="1.0" encoding="UTF-8"?>
<!DOCTYPE svg PUBLIC "-//W3C//DTD SVG 1.1//EN" "http://www.w3.org/Graphics/SVG/1.1/DTD/svg11.dtd">
<!-- Creator: CorelDRAW -->
<svg xmlns="http://www.w3.org/2000/svg" xml:space="preserve" width="126.961mm" height="126.961mm" version="1.1" style="shape-rendering:geometricPrecision; text-rendering:geometricPrecision; image-rendering:optimizeQuality; fill-rule:evenodd; clip-rule:evenodd"
viewBox="0 0 3290.27 3290.27"
 xmlns:xlink="http://www.w3.org/1999/xlink"
 xmlns:xodm="http://www.corel.com/coreldraw/odm/2003">
 <defs>
  <style type="text/css">
  </style>
 </defs>
 <g id="Camada_x0020_1">
  <metadata id="CorelCorpID_0Corel-Layer"/>
  <path class="fil0" d="M-0 1528.28l0 130.26c0,231.23 79.98,504.34 157.66,658.2 22.33,44.24 43.42,89.56 68.19,130.63 26.73,44.32 49.82,82.33 79.87,125.81 287.52,416.03 816.18,717.08 1326.01,717.08 390.44,0 591.9,-56.39 902.71,-221.67 85.48,-45.45 170.5,-112.79 246.23,-171.98l131.47 -122.2c96.14,-95.06 223.91,-277.36 280.48,-391.41 59.7,-120.37 142.74,-246.42 68.01,-330.85 -79.92,-90.29 -227.01,58.88 -621.07,58.88 -289.69,0 -619.58,-106.36 -827.65,-262.46 -19,-14.25 -32.85,-22.95 -51.95,-37.18 -21.96,-16.36 -33.36,-28.1 -52.83,-43.15 -110.94,-85.73 -180.78,-177.02 -262.45,-286.03 -224.25,-299.34 -315,-739.53 -236.35,-1131.49 27.87,-138.88 97.09,-254.6 33.35,-317.81 -80.9,-80.23 -213.55,4.48 -325.27,60.17 -37.12,18.5 -72.89,36.99 -106.14,58.41 -18.04,11.62 -32.52,22.34 -49.65,32.62l-189.78 146.16c-40.78,39.7 -75.89,57.99 -128.09,125.58 -14.7,19.03 -24.99,25.54 -39.9,42.37 -223.73,252.4 -402.84,678.56 -402.84,1030.06z"/>
 </g>
</svg>
